<svg width="20" height="18" viewBox="0 0 20 18" fill="none" xmlns="http://www.w3.org/2000/svg">
<path d="M10 4.5H11.5M10 7.5H11.5M4 10.5H11.5M4 13.5H11.5M14.5 4.5H17.875C18.4963 4.5 19 5.00368 19 5.625V15C19 16.2426 17.9926 17.25 16.75 17.25M14.5 4.5V15C14.5 16.2426 15.5074 17.25 16.75 17.25M14.5 4.5V1.875C14.5 1.25368 13.9963 0.75 13.375 0.75H2.125C1.50368 0.75 1 1.25368 1 1.875V15C1 16.2426 2.00736 17.25 3.25 17.25H16.75M4 4.5H7V7.5H4V4.5Z" stroke="#334155" stroke-width="1.5" stroke-linecap="round" stroke-linejoin="round"/>
</svg>
